<?xml version="1.0" encoding="utf-8"?>
<!-- Generator: Adobe Illustrator 21.1.0, SVG Export Plug-In . SVG Version: 6.00 Build 0)  -->
<svg version="1.1" id="Layer_1" xmlns="http://www.w3.org/2000/svg" xmlns:xlink="http://www.w3.org/1999/xlink" x="0px" y="0px"
	 viewBox="0 0 32 32" style="enable-background:new 0 0 32 32;" xml:space="preserve">
<style type="text/css">
	.st0{fill:#FFFFFF;}
</style>
<g>
	<title>Group</title>
	<desc>Created with Illustrator.</desc>
	<path class="st0" d="M16,2c7.7,0,14,6.3,14,14s-6.3,14-14,14S2,23.7,2,16S8.3,2,16,2 M16,0C7.2,0,0,7.2,0,16s7.2,16,16,16
		s16-7.2,16-16S24.8,0,16,0L16,0z"/>
	<path class="st0" d="M22.2,12h-2c0.2-0.4,0.3-0.8,0.3-1.2c0-1.7-1.6-3.1-3.7-3.1h-1.5c-2,0-3.7,1.4-3.7,3.1c0,0.4,0.1,0.8,0.3,1.2
		h-2c-0.6,0-1,0.4-1,1s0.4,1,1,1h0.5l1.4,9c0.2,1.1,1.2,2,2.3,2h4c1.1,0,2.1-0.9,2.3-2l1.4-9h0.5c0.6,0,1-0.4,1-1S22.7,12,22.2,12z
		 M18.3,22.7c0,0.1-0.2,0.3-0.3,0.3h-4c-0.1,0-0.3-0.2-0.3-0.3L12.3,14h7.3L18.3,22.7z M13.6,10.8c0-0.8,0.7-1.4,1.6-1.4h1.5
		c0.9,0,1.6,0.6,1.6,1.4c0,0.5-0.4,1-0.9,1.2h-3C14,11.8,13.6,11.3,13.6,10.8z"/>
</g>
</svg>
